<svg width="128" height="128" viewBox="0 0 128 128" fill="none" xmlns="http://www.w3.org/2000/svg">
<path d="M108 31H91L86.95 19.65C86.6702 18.8734 86.1574 18.202 85.4818 17.7277C84.8061 17.2534 84.0005 16.9993 83.175 17H44.825C43.1375 17 41.625 18.0625 41.0625 19.65L37 31H20C14.475 31 10 35.475 10 41V98C10 103.525 14.475 108 20 108H108C113.525 108 118 103.525 118 98V41C118 35.475 113.525 31 108 31ZM109 98C109 98.55 108.55 99 108 99H20C19.45 99 19 98.55 19 98V41C19 40.45 19.45 40 20 40H43.3375L45.475 34.025L48.3375 26H79.65L82.5125 34.025L84.65 40H108C108.55 40 109 40.45 109 41V98ZM64 48C52.95 48 44 56.95 44 68C44 79.05 52.95 88 64 88C75.05 88 84 79.05 84 68C84 56.95 75.05 48 64 48ZM64 80C57.375 80 52 74.625 52 68C52 61.375 57.375 56 64 56C70.625 56 76 61.375 76 68C76 74.625 70.625 80 64 80Z" fill="black"/>
</svg>
