<svg width="152" height="26" viewBox="0 0 152 26" fill="none" xmlns="http://www.w3.org/2000/svg">
<path d="M10.0742 21L5.32812 12.668V21H0.078125V2.30859H6.13672L11.1875 11.2266V2.30859H16.3906V21H10.0742Z" fill="#66FEED"/>
<path d="M26.9844 8.0625H25.0273V17.2969H26.9844V8.0625ZM23.293 5.44922C25.1367 5.46484 26.4609 6.01172 27.2656 7.08984L27.6875 5.77734H33.6758V18.2344C33.6758 20.6875 32.9922 22.4883 31.625 23.6367C30.2656 24.7852 28.1406 25.3594 25.25 25.3594C23.25 25.3594 21.3867 25.1211 19.6602 24.6445L20.3281 21.2344C21.4297 21.5391 22.7812 21.6914 24.3828 21.6914C25.7344 21.6914 26.6523 21.5469 27.1367 21.2578V18.5977C26.7852 19.043 26.2656 19.3789 25.5781 19.6055C24.8906 19.8242 24.1172 19.9336 23.2578 19.9336C19.9766 19.9336 18.3359 18.4062 18.3359 15.3516V10.1367C18.3359 7.01172 19.9883 5.44922 23.293 5.44922Z" fill="#66FEED"/>
<path d="M34.8945 21L39.2656 13.3594L34.8945 5.76562H41.5977L42.6055 8.70703L43.625 5.76562H50.3164L45.9453 13.3594L50.3164 21H43.6719L42.6055 17.9766L41.5391 21H34.8945Z" fill="#66FEED"/>
<path d="M64.2383 11.4961V15.3984H52.5078V11.4961H64.2383Z" fill="#66FEED"/>
<path d="M74.0234 18.668H75.9805V8.05078H74.0234V18.668ZM77.7852 21.3516C76.9336 21.3516 76.1523 21.2031 75.4414 20.9062C74.7383 20.6016 74.2109 20.1875 73.8594 19.6641L73.4258 21H67.332V0.960938H74.0234V6.76172C74.7812 5.88672 76.0469 5.44922 77.8203 5.44922C81.0547 5.44922 82.6719 6.96094 82.6719 9.98438V16.582C82.6719 19.7617 81.043 21.3516 77.7852 21.3516Z" fill="#66FEED"/>
<path d="M92.1172 21.3516C91.6328 21.3516 91.2148 21.3477 90.8633 21.3398C90.5117 21.332 90.1055 21.3125 89.6445 21.2812C89.1836 21.25 88.7852 21.2031 88.4492 21.1406C88.1211 21.0859 87.7617 21.0039 87.3711 20.8945C86.9883 20.7852 86.6602 20.6562 86.3867 20.5078C86.1211 20.3594 85.8516 20.1719 85.5781 19.9453C85.3125 19.7188 85.0977 19.4648 84.9336 19.1836C84.7773 18.9023 84.6484 18.5703 84.5469 18.1875C84.4531 17.8047 84.4062 17.3828 84.4062 16.9219V9.83203C84.4062 9.33984 84.4648 8.89062 84.582 8.48438C84.707 8.07031 84.8867 7.71875 85.1211 7.42969C85.3633 7.14062 85.6289 6.88672 85.918 6.66797C86.2148 6.44141 86.5664 6.25781 86.9727 6.11719C87.3789 5.97656 87.7695 5.85938 88.1445 5.76562C88.5273 5.67188 88.9648 5.60547 89.457 5.56641C89.957 5.51953 90.4023 5.48828 90.793 5.47266C91.1836 5.45703 91.6289 5.44922 92.1289 5.44922C92.7383 5.44922 93.2734 5.46094 93.7344 5.48438C94.2031 5.5 94.7148 5.54297 95.2695 5.61328C95.8242 5.68359 96.3008 5.78125 96.6992 5.90625C97.1055 6.03125 97.5078 6.20312 97.9062 6.42188C98.3125 6.64062 98.6406 6.90234 98.8906 7.20703C99.1484 7.51172 99.3555 7.88672 99.5117 8.33203C99.668 8.77734 99.7461 9.28125 99.7461 9.84375V16.9336C99.7461 17.5352 99.6602 18.0703 99.4883 18.5391C99.3242 19.0078 99.1172 19.3984 98.8672 19.7109C98.625 20.0156 98.2852 20.2773 97.8477 20.4961C97.418 20.707 97.0156 20.8672 96.6406 20.9766C96.2656 21.0859 95.7773 21.168 95.1758 21.2227C94.5742 21.2852 94.0742 21.3203 93.6758 21.3281C93.2852 21.3438 92.7656 21.3516 92.1172 21.3516ZM91.0977 18.3281H93.043V8.05078H91.0977V18.3281Z" fill="#66FEED"/>
<path d="M109.203 21.3516C108.719 21.3516 108.301 21.3477 107.949 21.3398C107.598 21.332 107.191 21.3125 106.73 21.2812C106.27 21.25 105.871 21.2031 105.535 21.1406C105.207 21.0859 104.848 21.0039 104.457 20.8945C104.074 20.7852 103.746 20.6562 103.473 20.5078C103.207 20.3594 102.938 20.1719 102.664 19.9453C102.398 19.7188 102.184 19.4648 102.02 19.1836C101.863 18.9023 101.734 18.5703 101.633 18.1875C101.539 17.8047 101.492 17.3828 101.492 16.9219V9.83203C101.492 9.33984 101.551 8.89062 101.668 8.48438C101.793 8.07031 101.973 7.71875 102.207 7.42969C102.449 7.14062 102.715 6.88672 103.004 6.66797C103.301 6.44141 103.652 6.25781 104.059 6.11719C104.465 5.97656 104.855 5.85938 105.23 5.76562C105.613 5.67188 106.051 5.60547 106.543 5.56641C107.043 5.51953 107.488 5.48828 107.879 5.47266C108.27 5.45703 108.715 5.44922 109.215 5.44922C109.824 5.44922 110.359 5.46094 110.82 5.48438C111.289 5.5 111.801 5.54297 112.355 5.61328C112.91 5.68359 113.387 5.78125 113.785 5.90625C114.191 6.03125 114.594 6.20312 114.992 6.42188C115.398 6.64062 115.727 6.90234 115.977 7.20703C116.234 7.51172 116.441 7.88672 116.598 8.33203C116.754 8.77734 116.832 9.28125 116.832 9.84375V16.9336C116.832 17.5352 116.746 18.0703 116.574 18.5391C116.41 19.0078 116.203 19.3984 115.953 19.7109C115.711 20.0156 115.371 20.2773 114.934 20.4961C114.504 20.707 114.102 20.8672 113.727 20.9766C113.352 21.0859 112.863 21.168 112.262 21.2227C111.66 21.2852 111.16 21.3203 110.762 21.3281C110.371 21.3438 109.852 21.3516 109.203 21.3516ZM108.184 18.3281H110.129V8.05078H108.184V18.3281Z" fill="#66FEED"/>
<path d="M118.895 21V0.960938H125.586V11.6484L128.738 5.76562H135.605L131.727 12.9141L135.688 21H128.891L126.09 14.2617L125.586 15.3984V21H118.895Z" fill="#66FEED"/>
<path d="M144.805 15.7734H144.816C144.754 15.7031 144.582 15.6484 144.301 15.6094C144.152 15.5859 143.891 15.5508 143.516 15.5039C143.148 15.457 142.859 15.4219 142.648 15.3984C142.445 15.3672 142.188 15.3281 141.875 15.2812C141.57 15.2266 141.289 15.1719 141.031 15.1172C140.773 15.0625 140.527 15.0039 140.293 14.9414C139.715 14.7852 139.188 14.582 138.711 14.332C138.242 14.082 137.809 13.7773 137.41 13.418C137.02 13.0586 136.715 12.6289 136.496 12.1289C136.277 11.6211 136.168 11.0625 136.168 10.4531C136.168 9.85156 136.238 9.30859 136.379 8.82422C136.52 8.33984 136.711 7.92578 136.953 7.58203C137.195 7.23828 137.504 6.94141 137.879 6.69141C138.262 6.43359 138.664 6.22656 139.086 6.07031C139.508 5.91406 139.996 5.78906 140.551 5.69531C141.105 5.60156 141.652 5.53906 142.191 5.50781C142.73 5.46875 143.336 5.44922 144.008 5.44922C144.555 5.44922 145.023 5.45703 145.414 5.47266C145.812 5.48828 146.277 5.52734 146.809 5.58984C147.34 5.65234 147.793 5.74219 148.168 5.85938C148.543 5.96875 148.93 6.13281 149.328 6.35156C149.727 6.57031 150.047 6.82812 150.289 7.125C150.531 7.42188 150.73 7.80078 150.887 8.26172C151.051 8.71484 151.133 9.22656 151.133 9.79688C151.133 10.3359 151.129 10.6641 151.121 10.7812L144.805 10.4297V8.54297H142.848V10.9102C142.918 10.9805 143.094 11.0391 143.375 11.0859C143.586 11.1172 144 11.1797 144.617 11.2734C145.234 11.3594 145.758 11.4414 146.188 11.5195C146.617 11.5977 147.016 11.6875 147.383 11.7891C147.945 11.9453 148.457 12.1406 148.918 12.375C149.387 12.6016 149.82 12.8867 150.219 13.2305C150.617 13.5664 150.93 13.9805 151.156 14.4727C151.383 14.957 151.496 15.4922 151.496 16.0781C151.496 16.6719 151.438 17.2109 151.32 17.6953C151.211 18.1797 151.043 18.5977 150.816 18.9492C150.598 19.3008 150.348 19.6094 150.066 19.875C149.793 20.1406 149.457 20.3594 149.059 20.5312C148.66 20.7031 148.27 20.8477 147.887 20.9648C147.504 21.0742 147.059 21.1562 146.551 21.2109C146.043 21.2656 145.574 21.3008 145.145 21.3164C144.715 21.3398 144.223 21.3516 143.668 21.3516C143.012 21.3516 142.445 21.3398 141.969 21.3164C141.492 21.293 140.988 21.2383 140.457 21.1523C139.926 21.0742 139.477 20.9648 139.109 20.8242C138.75 20.6758 138.395 20.4766 138.043 20.2266C137.691 19.9766 137.41 19.6797 137.199 19.3359C136.996 18.9844 136.832 18.5586 136.707 18.0586C136.582 17.5586 136.52 16.9883 136.52 16.3477C136.52 16.168 136.523 16.0312 136.531 15.9375L142.848 16.3125V18.2695H144.805V15.7734Z" fill="#66FEED"/>
</svg>
