<svg width="65" height="44" viewBox="0 0 65 44" fill="none" xmlns="http://www.w3.org/2000/svg">
<path d="M21.4609 15L17.9014 8.75098V15H13.9639V0.981445H18.5078L22.2959 7.66992V0.981445H26.1982V15H21.4609Z" fill="#66FEED"/>
<path d="M34.1436 5.29688H32.6758V12.2227H34.1436V5.29688ZM31.375 3.33691C32.7578 3.34863 33.751 3.75879 34.3545 4.56738L34.6709 3.58301H39.1621V12.9258C39.1621 14.7656 38.6494 16.1162 37.624 16.9775C36.6045 17.8389 35.0107 18.2695 32.8428 18.2695C31.3428 18.2695 29.9453 18.0908 28.6504 17.7334L29.1514 15.1758C29.9775 15.4043 30.9912 15.5186 32.1924 15.5186C33.2061 15.5186 33.8945 15.4102 34.2578 15.1934V13.1982C33.9941 13.5322 33.6045 13.7842 33.0889 13.9541C32.5732 14.1182 31.9932 14.2002 31.3486 14.2002C28.8877 14.2002 27.6572 13.0547 27.6572 10.7637V6.85254C27.6572 4.50879 28.8965 3.33691 31.375 3.33691Z" fill="#66FEED"/>
<path d="M40.0762 15L43.3545 9.26953L40.0762 3.57422H45.1035L45.8594 5.78027L46.624 3.57422H51.6426L48.3643 9.26953L51.6426 15H46.6592L45.8594 12.7324L45.0596 15H40.0762Z" fill="#66FEED"/>
<path d="M6.25586 34.6416H7.77637V31.0645H6.25586V34.6416ZM6.25586 40.9346H7.77637V36.2324H6.25586V40.9346ZM9.78906 35.3271V35.4414C10.4453 35.5176 10.999 35.667 11.4502 35.8896C11.9072 36.1064 12.2529 36.3818 12.4873 36.7158C12.7217 37.0439 12.8857 37.3896 12.9795 37.7529C13.0791 38.1104 13.1289 38.5117 13.1289 38.957C13.1289 39.7715 13.0439 40.4395 12.874 40.9609C12.7041 41.4766 12.417 41.8867 12.0127 42.1914C11.6143 42.4961 11.1279 42.707 10.5537 42.8242C9.97949 42.9414 9.24707 43 8.35645 43H0.947266V28.9814H8.3916C8.74902 28.9814 9.07129 28.9932 9.3584 29.0166C9.64551 29.0342 9.94434 29.0723 10.2549 29.1309C10.5654 29.1895 10.8379 29.2686 11.0723 29.3682C11.3125 29.4619 11.541 29.5938 11.7578 29.7637C11.9805 29.9277 12.1621 30.124 12.3027 30.3525C12.4434 30.5811 12.5547 30.8594 12.6367 31.1875C12.7246 31.5098 12.7686 31.876 12.7686 32.2861C12.7686 33.2178 12.5488 33.9297 12.1094 34.4219C11.6758 34.9082 10.9023 35.21 9.78906 35.3271Z" fill="#66FEED"/>
<path d="M19.8789 43.2637C19.5156 43.2637 19.2021 43.2607 18.9385 43.2549C18.6748 43.249 18.3701 43.2344 18.0244 43.2109C17.6787 43.1875 17.3799 43.1523 17.1279 43.1055C16.8818 43.0645 16.6123 43.0029 16.3193 42.9209C16.0322 42.8389 15.7861 42.7422 15.5811 42.6309C15.3818 42.5195 15.1797 42.3789 14.9746 42.209C14.7754 42.0391 14.6143 41.8486 14.4912 41.6377C14.374 41.4268 14.2773 41.1777 14.2012 40.8906C14.1309 40.6035 14.0957 40.2871 14.0957 39.9414V34.624C14.0957 34.2549 14.1396 33.918 14.2275 33.6133C14.3213 33.3027 14.4561 33.0391 14.6318 32.8223C14.8135 32.6055 15.0127 32.415 15.2295 32.251C15.4521 32.0811 15.7158 31.9434 16.0205 31.8379C16.3252 31.7324 16.6182 31.6445 16.8994 31.5742C17.1865 31.5039 17.5146 31.4541 17.8838 31.4248C18.2588 31.3896 18.5928 31.3662 18.8857 31.3545C19.1787 31.3428 19.5127 31.3369 19.8877 31.3369C20.3447 31.3369 20.7461 31.3457 21.0918 31.3633C21.4434 31.375 21.8271 31.4072 22.2432 31.46C22.6592 31.5127 23.0166 31.5859 23.3154 31.6797C23.6201 31.7734 23.9219 31.9023 24.2207 32.0664C24.5254 32.2305 24.7715 32.4268 24.959 32.6553C25.1523 32.8838 25.3076 33.165 25.4248 33.499C25.542 33.833 25.6006 34.2109 25.6006 34.6328V39.9502C25.6006 40.4014 25.5361 40.8027 25.4072 41.1543C25.2842 41.5059 25.1289 41.7988 24.9414 42.0332C24.7598 42.2617 24.5049 42.458 24.1768 42.6221C23.8545 42.7803 23.5527 42.9004 23.2715 42.9824C22.9902 43.0645 22.624 43.126 22.1729 43.167C21.7217 43.2139 21.3467 43.2402 21.0479 43.2461C20.7549 43.2578 20.3652 43.2637 19.8789 43.2637ZM19.1143 40.9961H20.5732V33.2881H19.1143V40.9961Z" fill="#66FEED"/>
<path d="M32.6934 43.2637C32.3301 43.2637 32.0166 43.2607 31.7529 43.2549C31.4893 43.249 31.1846 43.2344 30.8389 43.2109C30.4932 43.1875 30.1943 43.1523 29.9424 43.1055C29.6963 43.0645 29.4268 43.0029 29.1338 42.9209C28.8467 42.8389 28.6006 42.7422 28.3955 42.6309C28.1963 42.5195 27.9941 42.3789 27.7891 42.209C27.5898 42.0391 27.4287 41.8486 27.3057 41.6377C27.1885 41.4268 27.0918 41.1777 27.0156 40.8906C26.9453 40.6035 26.9102 40.2871 26.9102 39.9414V34.624C26.9102 34.2549 26.9541 33.918 27.042 33.6133C27.1357 33.3027 27.2705 33.0391 27.4463 32.8223C27.6279 32.6055 27.8271 32.415 28.0439 32.251C28.2666 32.0811 28.5303 31.9434 28.835 31.8379C29.1396 31.7324 29.4326 31.6445 29.7139 31.5742C30.001 31.5039 30.3291 31.4541 30.6982 31.4248C31.0732 31.3896 31.4072 31.3662 31.7002 31.3545C31.9932 31.3428 32.3271 31.3369 32.7021 31.3369C33.1592 31.3369 33.5605 31.3457 33.9062 31.3633C34.2578 31.375 34.6416 31.4072 35.0576 31.46C35.4736 31.5127 35.8311 31.5859 36.1299 31.6797C36.4346 31.7734 36.7363 31.9023 37.0352 32.0664C37.3398 32.2305 37.5859 32.4268 37.7734 32.6553C37.9668 32.8838 38.1221 33.165 38.2393 33.499C38.3564 33.833 38.415 34.2109 38.415 34.6328V39.9502C38.415 40.4014 38.3506 40.8027 38.2217 41.1543C38.0986 41.5059 37.9434 41.7988 37.7559 42.0332C37.5742 42.2617 37.3193 42.458 36.9912 42.6221C36.6689 42.7803 36.3672 42.9004 36.0859 42.9824C35.8047 43.0645 35.4385 43.126 34.9873 43.167C34.5361 43.2139 34.1611 43.2402 33.8623 43.2461C33.5693 43.2578 33.1797 43.2637 32.6934 43.2637ZM31.9287 40.9961H33.3877V33.2881H31.9287V40.9961Z" fill="#66FEED"/>
<path d="M39.9619 43V27.9707H44.9805V35.9863L47.3447 31.5742H52.4951L49.5859 36.9355L52.5566 43H47.459L45.3584 37.9463L44.9805 38.7988V43H39.9619Z" fill="#66FEED"/>
<path d="M59.3945 39.0801H59.4033C59.3564 39.0273 59.2275 38.9863 59.0166 38.957C58.9053 38.9395 58.709 38.9131 58.4277 38.8779C58.1523 38.8428 57.9355 38.8164 57.7773 38.7988C57.625 38.7754 57.4316 38.7461 57.1973 38.7109C56.9688 38.6699 56.7578 38.6289 56.5645 38.5879C56.3711 38.5469 56.1865 38.5029 56.0107 38.4561C55.5771 38.3389 55.1816 38.1865 54.8242 37.999C54.4727 37.8115 54.1475 37.583 53.8486 37.3135C53.5557 37.0439 53.3271 36.7217 53.1631 36.3467C52.999 35.9658 52.917 35.5469 52.917 35.0898C52.917 34.6387 52.9697 34.2314 53.0752 33.8682C53.1807 33.5049 53.3242 33.1943 53.5059 32.9365C53.6875 32.6787 53.9189 32.4561 54.2002 32.2686C54.4873 32.0752 54.7891 31.9199 55.1055 31.8027C55.4219 31.6855 55.7881 31.5918 56.2041 31.5215C56.6201 31.4512 57.0303 31.4043 57.4346 31.3809C57.8389 31.3516 58.293 31.3369 58.7969 31.3369C59.207 31.3369 59.5586 31.3428 59.8516 31.3545C60.1504 31.3662 60.499 31.3955 60.8975 31.4424C61.2959 31.4893 61.6357 31.5566 61.917 31.6445C62.1982 31.7266 62.4883 31.8496 62.7871 32.0137C63.0859 32.1777 63.3262 32.3711 63.5078 32.5938C63.6895 32.8164 63.8389 33.1006 63.9561 33.4463C64.0791 33.7861 64.1406 34.1699 64.1406 34.5977C64.1406 35.002 64.1377 35.248 64.1318 35.3359L59.3945 35.0723V33.6572H57.9268V35.4326C57.9795 35.4854 58.1113 35.5293 58.3223 35.5645C58.4805 35.5879 58.791 35.6348 59.2539 35.7051C59.7168 35.7695 60.1094 35.8311 60.4316 35.8896C60.7539 35.9482 61.0527 36.0156 61.3281 36.0918C61.75 36.209 62.1338 36.3555 62.4795 36.5312C62.8311 36.7012 63.1562 36.915 63.4551 37.1729C63.7539 37.4248 63.9883 37.7354 64.1582 38.1045C64.3281 38.4678 64.4131 38.8691 64.4131 39.3086C64.4131 39.7539 64.3691 40.1582 64.2812 40.5215C64.1992 40.8848 64.0732 41.1982 63.9033 41.4619C63.7393 41.7256 63.5518 41.957 63.3408 42.1562C63.1357 42.3555 62.8838 42.5195 62.585 42.6484C62.2861 42.7773 61.9932 42.8857 61.7061 42.9736C61.4189 43.0557 61.085 43.1172 60.7041 43.1582C60.3232 43.1992 59.9717 43.2256 59.6494 43.2373C59.3271 43.2549 58.958 43.2637 58.542 43.2637C58.0498 43.2637 57.625 43.2549 57.2676 43.2373C56.9102 43.2197 56.5322 43.1787 56.1338 43.1143C55.7354 43.0557 55.3984 42.9736 55.123 42.8682C54.8535 42.7568 54.5869 42.6074 54.3232 42.4199C54.0596 42.2324 53.8486 42.0098 53.6904 41.752C53.5381 41.4883 53.415 41.1689 53.3213 40.7939C53.2275 40.4189 53.1807 39.9912 53.1807 39.5107C53.1807 39.376 53.1836 39.2734 53.1895 39.2031L57.9268 39.4844V40.9521H59.3945V39.0801Z" fill="#66FEED"/>
</svg>
